<svg width="250" height="327" viewBox="0 0 250 327" fill="none" xmlns="http://www.w3.org/2000/svg">
<path d="M10.9578 0.0032959L10.9462 84.0991C12.7515 118.656 29.8539 149.492 56.3548 166.791C72.5615 177.369 90.6269 185.661 107.1 195.816C124.574 206.585 141.369 219.68 158.837 230.58C165.532 235.596 168.824 241.673 169.292 250.831V324.063H158.349V249.401C158.349 243.563 151.461 239.875 147.734 237.322C132.981 227.22 117.566 216.336 102.515 206.952C87.101 197.342 70.7942 189.375 55.2457 180.027C22.3926 160.268 1.43666 124.697 0 82.3862L0.011704 0.0032959H10.9578Z" fill="#95D36F"/>
<path d="M43.2872 0.00328115V82.6555C44.8672 106.037 56.314 125.301 74.4255 136.525C93.5414 148.374 113.5 158.053 132.457 170.508C146.783 179.919 161.986 189.677 175.888 199.74C191.808 211.267 200.835 228.152 201.63 249.666L201.619 324.057H190.673V247.684C189.482 231.285 182.117 218.797 170.033 210.017C153.266 197.837 135.175 187.301 118.295 175.253C102.612 165.701 86.2029 157.567 70.5164 148.042C47.3426 133.966 33.3856 110.332 32.3264 80.3848L32.3381 0L43.2872 0.00328115Z" fill="#95D36F"/>
<path d="M75.6163 0.0032959V80.3718C76.4476 91.1272 81.4745 99.2912 89.7024 104.551C105.994 114.965 124.083 123.138 140.448 133.576C158.627 146.969 179.118 158.04 196.972 171.821C219.201 188.975 232.953 217.307 233.965 247.675L233.954 324.059H223.008V245.69C221.434 220.149 209.764 196.692 191.117 182.097C173.415 168.241 152.658 157.308 134.593 143.852C118.19 133.507 100.122 125.284 83.8471 114.827C71.9211 107.166 64.9221 93.9197 64.6586 78.3901L64.6702 0.0032959H75.6163Z" fill="#95D36F"/>
<path d="M91.9086 0.0032959V80.6603C91.9086 82.4521 94.1207 85.9135 95.3495 87.0787C112.668 97.7293 130.649 107.12 148.082 117.587C166.132 130.383 185.414 141.703 203.284 154.746C230.513 174.623 247.809 207.057 250 243.678L249.988 324.063H239.297L239.309 248.249C238.302 213.918 222.727 183.498 197.274 164.914C179.457 151.904 160.213 140.653 142.227 127.867C126.031 117.36 107.495 109.449 91.4812 98.8415C86.4807 95.5273 80.9596 87.7283 80.9596 80.9493V0.0032959H91.9086Z" fill="#95D36F"/>
<path d="M59.3245 0.0032959L59.313 78.1044C59.5586 95.1666 67.0812 110.552 80.1197 119.293C95.9783 129.924 114.351 137.887 130.517 148.134C148.775 161.456 169.187 172.585 187.147 186.261C204.796 199.704 216.038 221.416 217.659 245.401V324.057H206.97L206.982 249.955C206.464 228.332 197.101 208.74 181.295 196.538C164.084 183.252 144.099 172.674 126.608 159.658C111.334 150.431 95.5105 142.323 80.1956 133.195C61.9404 122.315 50.4413 106.51 48.6389 82.6521V0.0032959H59.3245Z" fill="#95D36F"/>
<path d="M26.9952 0.0032959L26.9836 79.8174C28.0106 111.139 42.1695 137.182 66.4466 152.331C82.7062 162.476 100.268 170.777 116.516 180.969C135.485 192.869 153.875 206.349 172.35 219.132C179.826 226.439 184.484 236.542 185.327 247.688V324.059H174.638L174.65 251.953C174.571 243.028 171.598 234.606 165.594 228.706C147.35 216.274 129.329 202.913 110.658 191.248C95.1683 181.573 78.5163 173.478 62.8798 164.038C35.9517 147.783 18.6532 119.575 16.3036 84.9426V0.0032959H26.9952Z" fill="#95D36F"/>
<path d="M10.9578 324.059H0.011704L0 220.264C0.435974 212.688 1.8463 205.43 4.47385 198.444C7.26524 191.029 11.5343 184.375 14.9079 177.3C17.5677 179.239 20.9443 180.788 23.5163 182.777C23.8 182.996 24.1921 183.2 24.1541 183.675C19.9289 192.469 14.431 200.734 12.2482 210.588C11.5431 213.77 11.2329 217.005 10.9462 220.26L10.9578 324.059Z" fill="#95D36F"/>
<path d="M249.988 0.0032959V106.07C249.169 121.347 241.965 133.759 235.326 146.494L225.799 140.614C230.575 130.81 236.701 121.541 238.451 110.263C238.887 107.451 239.025 104.636 239.309 101.801L239.297 0.0032959H249.988Z" fill="#95D36F"/>
<path d="M233.951 0.0032959L233.963 101.516C233.652 104.505 233.55 107.491 233.017 110.447C231.253 120.261 225.343 129.002 221.097 137.612L211.798 131.472C214.467 125.671 218.153 120.071 220.503 114.112C221.995 110.325 222.741 106.795 223.002 102.638V0.0032959H233.951Z" fill="#95D36F"/>
<path d="M16.3036 324.059V219.709C16.8567 207.09 23.6391 196.98 28.9176 186.425L38.2135 192.321C34.4361 201.321 28.2388 209.131 27.2527 219.424C27.1006 221.012 27.3581 222.675 26.9836 224.26L26.9952 324.059H16.3036Z" fill="#95D36F"/>
<path d="M32.341 324.059L32.3293 223.975C32.6863 222.488 32.4435 220.91 32.6015 219.424C33.4997 210.978 39.58 203.005 42.9244 195.56L52.2173 201.456C52.3491 202.325 45.3998 214.604 44.5161 216.799C44.1972 217.593 43.2872 220.142 43.2872 220.848V324.059H32.341Z" fill="#95D36F"/>
<path d="M217.659 0.0032959L217.671 102.372C217.214 112.156 211.09 120.169 207.096 128.477L197.829 122.351L205.911 106.316C206.338 105.102 206.967 102.733 206.967 101.502V0.0032959H217.659Z" fill="#95D36F"/>
<path d="M201.622 0.0032959V101.502C201.622 102.008 200.89 104.367 200.65 104.98L193.101 119.306L183.829 113.213C185.535 109.368 188.045 105.663 189.701 101.834C189.938 101.282 190.675 99.6879 190.675 99.2157V0.0032959H201.622Z" fill="#95D36F"/>
<path d="M48.6332 221.704C48.7385 220.831 49.4111 219.263 49.774 218.416C51.7346 213.833 54.7659 209.213 56.9428 204.734L66.2212 210.598C66.312 211.277 61.399 220.014 60.7231 221.556C60.2962 222.531 59.3274 224.706 59.3274 225.704V324.063H48.6361L48.6332 221.704Z" fill="#95D36F"/>
<path d="M75.6163 324.059H64.6702V226.842C64.6702 225.303 68.7375 217.714 69.7178 215.943C70.1303 215.198 70.5836 213.737 71.362 213.885L80.187 219.742C80.4182 220.638 75.6192 227.895 75.6192 229.126L75.6163 324.059Z" fill="#95D36F"/>
<path d="M185.33 0.0032959V98.0769C183.878 101.24 182.345 104.406 180.698 107.441C180.39 108.006 179.352 110.266 178.881 110.185L169.839 104.081C169.775 103.225 174.641 96.0067 174.641 94.0803V0.0032959H185.33Z" fill="#95D36F"/>
<path d="M91.9087 324.059H80.9625V230.553C80.9625 229.678 84.3096 224.624 84.6519 223.269L85.3544 223.03L94.0856 228.69C94.5125 229.605 91.9058 232.981 91.9058 233.408L91.9087 324.059Z" fill="#95D36F"/>
<path d="M169.295 0.0032959V92.9387C169.295 93.3585 166.159 99.5566 165.69 100.314C165.497 100.627 165.301 101.082 164.883 101.036L155.914 95.0878C155.666 94.5006 158.346 90.7733 158.346 90.0842V0.0032959H169.295Z" fill="#95D36F"/>
</svg>
